HIERARCHY
ROOT Hips
{
	OFFSET 0.000000 0.000000 0.000000
	CHANNELS 6 Xposition Yposition Zposition Zrotation Yrotation Xrotation 
	JOINT LHipJoint
	{
		OFFSET 0.000000 0.000000 0.000000
		CHANNELS 3 Zrotation Yrotation Xrotation
		JOINT LeftUpLeg
		{
			OFFSET 1.363060 -1.794630 0.839290
			CHANNELS 3 Zrotation Yrotation Xrotation
			JOINT LeftLeg
			{
				OFFSET 2.448110 -6.726130 0.000000
				CHANNELS 3 Zrotation Yrotation Xrotation
				JOINT LeftFoot
				{
					OFFSET 2.562200 -7.039590 0.000000
					CHANNELS 3 Zrotation Yrotation Xrotation
					JOINT LeftToeBase
					{
						OFFSET 0.157640 -0.433110 2.322550
						CHANNELS 3 Zrotation Yrotation Xrotation
						End Site
						{
							OFFSET 0.000000 0.000000 0.000000
						}
					}
				}
			}
		}
	}
	JOINT RHipJoint
	{
		OFFSET 0.000000 0.000000 0.000000
		CHANNELS 3 Zrotation Yrotation Xrotation
		JOINT RightUpLeg
		{
			OFFSET -1.305520 -1.794630 0.839290
			CHANNELS 3 Zrotation Yrotation Xrotation
			JOINT RightLeg
			{
				OFFSET -2.542530 -6.985550 0.000000
				CHANNELS 3 Zrotation Yrotation Xrotation
				JOINT RightFoot
				{
					OFFSET -2.568260 -7.056230 0.000000
					CHANNELS 3 Zrotation Yrotation Xrotation
					JOINT RightToeBase
					{
						OFFSET -0.164730 -0.452590 2.363150
						CHANNELS 3 Zrotation Yrotation Xrotation
						End Site
						{
							OFFSET 0.000000 0.000000 0.000000
						}
					}
				}
			}
		}
	}
}
MOTION
Frames: 14
Frame Time: 0.008333
2.793832 17.452637 0.721077 26.977947 81.456445 37.981540 -8.673655 0.107324 2.524394 -11.776281 -3.960221 -33.273906 -1.495840 -0.038574 22.067247 3.007587 17.109970 -4.633338 1.596000 0.000000 -14.397400 10.129470 -2.521125 1.389389 9.461922 -0.793147 1.757214 2.482278 1.333465 -3.593764 -0.111915 1.106627 -5.211351 -0.107301 -0.000000 -16.201800
3.011704 17.444698 0.740952 23.553432 80.423529 34.479154 -8.709710 0.074481 2.474380 -12.087523 -2.274235 -33.132155 -1.822399 -0.412106 17.295855 2.809140 16.328311 -3.568285 1.890000 -0.000000 -16.039700 10.145472 -2.658386 1.293754 9.161364 -1.536756 2.745199 2.548994 1.330218 -4.113313 0.116932 2.416817 -4.553859 -0.028800 0.000000 -17.246500
3.232190 17.426664 0.754138 20.062451 79.377168 30.890843 -8.810253 0.032108 2.365910 -12.460565 -0.110564 -33.225781 -2.182690 -0.768268 12.893172 2.494604 14.942847 -2.536164 2.046400 -0.000000 -18.010000 10.088610 -2.777164 1.195330 8.992740 -2.202776 2.993717 2.661294 1.225214 -2.973636 0.268396 3.778297 -4.883544 0.082600 -0.000000 -18.400599
3.455533 17.399488 0.761818 16.720777 78.296688 27.463635 -8.943151 -0.018767 2.192562 -12.981980 2.455074 -33.633580 -2.581051 -1.093183 8.962093 2.074021 12.938475 -1.549323 2.038300 -0.000001 -20.388500 10.004532 -2.902175 1.140213 8.871455 -2.834867 3.352504 2.782147 1.159918 -2.108324 0.379434 5.152850 -5.145495 0.210000 0.000000 -19.803300
3.681656 17.364405 0.765348 13.699830 77.190254 24.395294 -9.071292 -0.079492 1.975197 -13.692722 5.239328 -34.392707 -3.008988 -1.381483 5.551445 1.579374 10.413591 -0.609607 1.871100 0.000001 -23.242800 9.913529 -3.025219 1.121531 8.748698 -3.425191 3.804182 2.900580 1.130098 -1.534493 0.468877 6.524971 -5.297929 0.338299 -0.000000 -21.627600
3.910258 17.322708 0.765904 11.072164 76.083780 21.790134 -9.166331 -0.153357 1.750511 -14.566719 7.987789 -35.497049 -3.443446 -1.633365 2.664747 1.059580 7.568580 0.266965 1.575300 -0.000000 -26.513200 9.827683 -3.138029 1.128521 8.600849 -3.956217 4.327018 3.008503 1.131163 -1.257337 0.555500 7.865045 -5.310341 0.454000 0.000000 -23.874400
4.140887 17.275716 0.764496 8.838720 75.033832 19.656569 -9.215874 -0.244220 1.572611 -15.503401 10.416085 -36.855267 -3.850518 -1.859147 0.241168 0.568782 4.693830 1.067908 1.207400 0.000000 -30.048300 9.756413 -3.247919 1.157981 8.424771 -4.423435 4.905064 3.100952 1.153961 -1.268472 0.656977 9.139115 -5.140635 0.550400 -0.000000 -26.661400
4.372910 17.224583 0.762034 6.927414 74.077581 17.923682 -9.225646 -0.353316 1.472870 -16.370184 12.338744 -38.352934 -4.200638 -2.063719 -1.768072 0.146077 2.046795 1.752719 0.820600 0.000000 -33.546100 9.697203 -3.354099 1.200083 8.239350 -4.807370 5.538208 3.176662 1.191957 -1.538817 0.785475 10.305744 -4.793888 0.621600 -0.000000 -29.666600
4.605676 17.170454 0.759307 5.273999 73.241815 16.507517 -9.211207 -0.477789 1.463167 -17.032612 13.667959 -39.843190 -4.473006 -2.249350 -3.417103 -0.186918 -0.159640 2.292853 0.467700 -0.000001 -36.722300 9.648587 -3.457011 1.241065 8.055128 -5.113268 6.238720 3.235000 1.235807 -2.024718 0.948645 11.339149 -4.253239 0.671899 0.000000 -32.895200
4.838593 17.114370 0.757007 3.816017 72.546165 15.311807 -9.189977 -0.611386 1.529016 -17.408786 14.445293 -41.224057 -4.663027 -2.408735 -4.696581 -0.429366 -1.839775 2.653155 0.181200 -0.000000 -39.366600 9.605936 -3.555618 1.272103 7.886877 -5.334389 7.034784 3.276562 1.279917 -2.672907 1.144542 12.207736 -3.565764 0.701300 -0.000000 -35.824000
5.071095 17.057288 0.755794 2.540215 72.004958 14.280110 -9.172648 -0.742671 1.643378 -17.495967 14.778131 -42.442176 -4.779144 -2.529477 -5.555923 -0.591040 -3.006492 2.800256 -0.024700 -0.000000 -41.373200 9.570517 -3.652538 1.281774 7.723611 -5.513191 7.945803 3.301370 1.315896 -3.433789 1.369352 12.915869 -2.715728 0.723000 0.000000 -38.683700
5.302969 17.000233 0.755960 1.421810 71.642617 13.343296 -9.168032 -0.863279 1.791810 -17.303675 14.751546 -43.452108 -4.829096 -2.604946 -5.970778 -0.679604 -3.677109 2.728143 -0.140300 -0.000000 -42.740800 9.524995 -3.727323 1.230348 7.591513 -5.620516 8.235259 3.335149 1.222286 -2.596225 1.423240 13.449483 -2.681712 0.736500 0.000000 -41.044201
5.534214 16.943864 0.757811 0.461514 71.453329 12.489114 -9.176181 -0.963530 1.948555 -16.885338 14.444531 -44.250260 -4.821370 -2.626410 -5.920354 -0.701383 -3.901427 2.430682 -0.170700 0.000000 -43.474600 9.485011 -3.796715 1.140123 7.455372 -5.732471 8.559999 3.354580 1.100239 -1.566658 1.446447 13.823329 -2.685049 0.750701 -0.000000 -43.155000
5.765316 16.888859 0.761338 -0.359808 71.433635 11.694866 -9.197428 -1.039128 2.106899 -16.271089 13.885030 -44.821890 -4.757560 -2.595011 -5.440771 -0.656902 -3.690497 1.937812 -0.121900 0.000000 -43.618500 9.450241 -3.860769 1.014983 7.314054 -5.857037 9.011537 3.357290 0.965681 -0.530515 1.456425 14.033654 -2.651301 0.765400 -0.000000 -44.917100
